<?xml version="1.0" encoding="utf-8"?>
<!-- Generator: Adobe Illustrator 18.0.0, SVG Export Plug-In . SVG Version: 6.00 Build 0)  -->
<!DOCTYPE svg PUBLIC "-//W3C//DTD SVG 1.1//EN" "http://www.w3.org/Graphics/SVG/1.1/DTD/svg11.dtd">
<svg version="1.1" xmlns="http://www.w3.org/2000/svg" xmlns:xlink="http://www.w3.org/1999/xlink" x="0px" y="0px"
	 viewBox="0 0 500 500" enable-background="new 0 0 500 500" xml:space="preserve">
<g id="googleplus">
	<rect class="background" fill="#DF4A32" width="499.5" height="499.5"/>
	<path class="icon" fill-rule="evenodd" clip-rule="evenodd" fill="#FFFFFF" d="M305.4,81.5h-90.1c-12,0-24.8,1.4-38.4,4.2
				c-13.8,3.2-27.1,10.2-39.9,20.7c-18.6,18.1-28,38.2-28,60.5c0,18.4,6.6,34.5,19.7,48.3c12.6,14.9,30.8,22.4,54.8,22.7
				c4.5,0,9.4-0.3,14.5-0.9c-0.8,2.4-1.8,5-2.8,7.8c-1.1,2.7-1.7,6-1.7,10c0,6.7,1.5,12.4,4.4,17.1c2.5,4.9,5.4,9.5,8.7,13.8
				c-10.5,0.3-23.7,1.6-39.6,4c-16.1,2.8-31.4,8.4-46,16.7c-13,7.8-22,16.8-26.9,27.1c-5.1,10.3-7.7,19.6-7.7,28
				c0,17.2,7.9,31.9,23.6,44.3c15.6,13.2,39.1,20,70.7,20.3c37.7-0.6,66.5-9.6,86.5-27.1c19.3-16.9,28.9-36.3,28.9-58.3
				c-0.3-15.4-3.8-28-10.5-37.5c-7.2-9.4-15.5-18-25-25.8l-15.3-12.6c-2.2-2.2-4.5-4.8-6.8-7.7c-2.8-3.1-4.1-7-4.1-11.7
				c0-4.9,1.3-9.1,4-12.8c2.3-3.5,4.8-6.7,7.4-9.5c4.7-4.1,9.1-8.2,13.3-12.1c3.8-4,7.3-8.3,10.7-13c6.8-9.7,10.4-22.7,10.7-38.8
				c0-8.8-1-16.6-3-23.2c-2.4-6.6-5.2-12.4-8.3-17.2c-3.3-5.1-6.6-9.5-10-13c-3.5-3.4-6.7-6-9.5-7.7h27.8L305.4,81.5z M256,328.3
				c7.5,8.5,11.2,18.5,11.2,30c0,14.1-5.5,25.7-16.4,34.7c-11.2,9.1-27.4,13.8-48.6,14.1c-23.7-0.3-42.3-5.6-55.9-15.9
				c-14.3-10.3-21.5-23.4-21.5-39.3c0-8.1,1.6-15,4.9-20.7c2.9-5.4,6.4-10,10.5-13.7c4.3-3.5,8.5-6.3,12.7-8.2
				c4.2-1.8,7.4-3.1,9.7-4c9.7-2.9,19.3-5.1,28.6-6.4c9.5-0.9,15.3-1.2,17.6-0.9c3.9,0,7.2,0.1,10.1,0.4
				C235.8,310.2,248.1,320.2,256,328.3z M241.4,195.1c-1.1,6-3.5,11.9-7.4,17.7c-7.9,8.1-17.8,12.4-29.6,12.8
				c-9.4,0-17.7-2.9-25-8.6c-7.3-5.7-13.3-12.8-17.9-21c-9.5-17.7-14.3-34.7-14.3-51.1c-0.3-12.4,3-23.6,9.8-33.6
				c8.1-9.6,18.2-14.5,30.4-14.8c9.2,0.3,17.4,3,24.5,8.2c7,5.5,12.6,12.5,16.8,21.2c9.1,18.1,13.6,36.1,13.6,54
				C242.4,184,242,189.1,241.4,195.1z M395.4,224.1v-47.5h-23.8v47.5h-47.5v23.8h47.5v47.5h23.8v-47.5h47.5v-23.8H395.4z"/>
	</g>
</svg>