<svg version="1.1" xmlns="http://www.w3.org/2000/svg" xmlns:xlink="http://www.w3.org/1999/xlink" x="0px" y="0px"
	 viewBox="0 0 500 500" enable-background="new 0 0 500 500" xml:space="preserve">
<g id="instagram">
	<rect class="background" fill="#32669A" width="499.5" height="499.5"/>
	<path class="icon" fill="#FFFFFF" d="M127.9,85.7h244.3c23.2,0,42.2,19,42.2,42.2v244.3c0,23.2-19,42.2-42.2,42.2H127.9
		c-23.2,0-42.2-19-42.2-42.2V127.9C85.7,104.7,104.7,85.7,127.9,85.7z M325.1,122.2c-8.2,0-14.8,6.7-14.8,14.8v35.4
		c0,8.1,6.6,14.8,14.8,14.8h37.1c8.1,0,14.8-6.7,14.8-14.8V137c0-8.1-6.7-14.8-14.8-14.8H325.1z M377.2,224.7h-28.9
		c2.7,9,4.2,18.4,4.2,28.2c0,54.6-45.7,99-102.2,99c-56.4,0-102.2-44.3-102.2-99c0-9.8,1.5-19.3,4.2-28.2h-30.2v138.8
		c0,7.2,5.9,13,13.1,13h228.9c7.2,0,13.1-5.8,13.1-13V224.7z M250.3,185.3c-36.4,0-66,28.6-66,64c0,35.3,29.6,64,66,64
		c36.5,0,66-28.6,66-64C316.3,214,286.8,185.3,250.3,185.3z"/>
</g>
</svg>
