<?xml version="1.0" encoding="utf-8"?>
<!-- Generator: Adobe Illustrator 18.0.0, SVG Export Plug-In . SVG Version: 6.00 Build 0)  -->
<!DOCTYPE svg PUBLIC "-//W3C//DTD SVG 1.1//EN" "http://www.w3.org/Graphics/SVG/1.1/DTD/svg11.dtd">
<svg version="1.1" xmlns="http://www.w3.org/2000/svg" xmlns:xlink="http://www.w3.org/1999/xlink" x="0px" y="0px"
	 viewBox="0 0 500 500" enable-background="new 0 0 500 500" xml:space="preserve">
<g id="linkedin">
	<rect class="background" display="inline" fill="#017BB6" width="500" height="500"/>
	<path class="icon" display="inline" fill="#FFFFFF" d="M85.6,193h70.5v226.6H85.6V193z M120.9,80.4c22.6,0,40.8,18.3,40.8,40.8
		c0,22.5-18.3,40.9-40.8,40.9C98.2,162,80,143.7,80,121.2C80,98.7,98.2,80.4,120.9,80.4"/>
	<path display="inline" fill="#FFFFFF" d="M200.3,193h67.6v31h1c9.4-17.8,32.4-36.6,66.7-36.6c71.3,0,84.5,46.9,84.5,108v124.3
		h-70.4V309.5c0-26.3-0.5-60.1-36.6-60.1c-36.7,0-42.3,28.6-42.3,58.2v112.1h-70.4V193z"/>
</g>
</svg>


