<?xml version="1.0" encoding="utf-8"?>
<!-- Generator: Adobe Illustrator 18.0.0, SVG Export Plug-In . SVG Version: 6.00 Build 0)  -->
<!DOCTYPE svg PUBLIC "-//W3C//DTD SVG 1.1//EN" "http://www.w3.org/Graphics/SVG/1.1/DTD/svg11.dtd">
<svg version="1.1" xmlns="http://www.w3.org/2000/svg" xmlns:xlink="http://www.w3.org/1999/xlink" x="0px" y="0px"
	 viewBox="0 0 500 500" enable-background="new 0 0 500 500" xml:space="preserve">
<g id="pinterest">
	<rect class="background" fill="#BC2026" width="499.5" height="499.5"/>
	<path class="icon" fill="#FFFFFF" d="M263.5,52.7c-110.8,0-166.7,79.2-166.7,145.2c0,40,15.2,75.5,47.8,88.8c5.3,2.2,10.1,0.1,11.7-5.8
		c1.1-4.1,3.6-14.4,4.8-18.6c1.6-5.8,1-7.9-3.4-13c-9.4-11-15.4-25.3-15.4-45.6c0-58.7,44.1-111.3,114.8-111.3c62.6,0,97,38.1,97,89
		c0,67-29.8,123.5-73.9,123.5c-24.4,0-42.7-20.1-36.8-44.8c7-29.4,20.6-61.2,20.6-82.5c0-19-10.2-34.9-31.5-34.9
		c-24.9,0-45,25.7-45,60.1c0,21.9,7.4,36.8,7.4,36.8s-25.5,107.8-30,126.6c-8.9,37.6-1.3,83.7-0.7,88.3c0.4,2.8,3.9,3.4,5.5,1.3
		c2.3-3,32-39.5,42.1-76c2.9-10.3,16.4-63.9,16.4-63.9c8.1,15.4,31.8,29,57,29c75,0,125.8-68.1,125.8-159.3
		C411.2,116.9,352.6,52.7,263.5,52.7z"/>
</g>
</svg>