<?xml version="1.0" encoding="utf-8"?>
<!-- Generator: Adobe Illustrator 18.0.0, SVG Export Plug-In . SVG Version: 6.00 Build 0)  -->
<!DOCTYPE svg PUBLIC "-//W3C//DTD SVG 1.1//EN" "http://www.w3.org/Graphics/SVG/1.1/DTD/svg11.dtd">
<svg version="1.1" xmlns="http://www.w3.org/2000/svg" xmlns:xlink="http://www.w3.org/1999/xlink" x="0px" y="0px"
	 viewBox="0 0 500 500" enable-background="new 0 0 500 500" xml:space="preserve">
<g id="twitter">
	<rect class="background" display="inline" fill="#2AA8E0" width="500" height="500"/>
	<path class="icon" display="inline" fill="#FFFFFF" d="M416.7,146.6c-12.3,5.4-25.5,9.1-39.3,10.8c14.1-8.5,25-21.9,30.1-37.8
		c-13.2,7.8-27.8,13.5-43.4,16.6c-12.5-13.3-30.3-21.6-49.9-21.6c-37.8,0-68.4,30.6-68.4,68.4c0,5.4,0.6,10.6,1.8,15.6
		c-56.8-2.8-107.2-30.1-141-71.5c-5.9,10.1-9.3,21.9-9.3,34.4c0,23.7,12.1,44.7,30.4,56.9c-11.2-0.3-21.7-3.4-31-8.6v0.9
		c0,33.1,23.6,60.8,54.9,67.1c-5.7,1.6-11.8,2.4-18,2.4c-4.4,0-8.7-0.4-12.9-1.2c8.7,27.2,34,46.9,63.9,47.5
		c-23.4,18.3-52.9,29.3-84.9,29.3c-5.5,0-10.9-0.3-16.3-1c30.3,19.4,66.2,30.7,104.8,30.7c125.8,0,194.6-104.2,194.6-194.6
		c0-3-0.1-5.9-0.2-8.9C395.9,172.4,407.5,160.3,416.7,146.6z"/>
</g>
</svg>