<svg version="1.1" xmlns="http://www.w3.org/2000/svg" xmlns:xlink="http://www.w3.org/1999/xlink" x="0px" y="0px"
	 viewBox="0 0 500 500" enable-background="new 0 0 500 500" xml:space="preserve">
<g id="vimeo">
	<rect class="background" fill="#1AB7EA" width="499.5" height="499.5"/>
	<path class="icon" fill="#FFFFFF" d="M390.1,81.3c-56.4-1.8-94.6,30.2-114.6,96.1c10.3-4.5,20.4-6.7,30.1-6.7c20.7,0,29.8,11.7,27.4,35.1
				c-1.2,14.2-10.4,34.8-27.4,61.8c-17.1,27.1-29.9,40.6-38.4,40.6c-11,0-21-20.8-30.2-62.6c-3.1-12.2-8.6-43.5-16.5-93.9
				c-7.3-46.6-26.8-68.4-58.5-65.4c-13.4,1.2-33.5,13.5-60.3,36.8c-19.5,17.8-39.3,35.5-59.4,53.3l19.2,24.8
				C79.8,188.5,90.4,182,93.5,182c14,0,27,22.1,39.2,66.1c11,40.4,21.9,80.8,32.9,121.2c16.4,44.1,36.5,66.1,60.2,66.1
				c38.3,0,85.1-36.2,140.5-108.6c53.5-69.3,81.2-123.9,83-163.7C451.7,109.8,431.9,82.5,390.1,81.3z"/>
	</g>
</svg>