<svg version="1.1" xmlns="http://www.w3.org/2000/svg" xmlns:xlink="http://www.w3.org/1999/xlink" x="0px" y="0px"
	 viewBox="0 0 500 500" enable-background="new 0 0 500 500" xml:space="preserve">
<g id="youtube">
	<rect class="background" display="inline" fill="#CD332D" width="500" height="500"/>
	<path class="screen" display="inline" fill="#FFFFFF" d="M416.3,335.3c0,25.9,0,53.4-5.8,78.6c-4.1,17.7-18.5,30.7-35.9,32.7
		c-41.2,4.6-83,4.6-124.5,4.6c-41.6,0-83.3,0-124.5-4.6c-17.4-2-31.9-15-35.9-32.7c-5.8-25.2-5.8-52.7-5.8-78.6
		c0-26,0.1-53.4,5.9-78.6c4.1-17.7,18.5-30.7,35.9-32.7c41.2-4.6,83-4.6,124.5-4.6c41.5,0,83.3,0,124.5,4.6
		c17.4,1.9,31.9,15,35.9,32.7C416.3,281.9,416.3,309.3,416.3,335.3z"/>
	<path class="tube" id="tube" display="inline" fill="#CD332D" d="M178.6,279.3v-21h-70.1v21h23.6v127.9h22.3V279.3H178.6z M219.2,407.2v-12.1
		c-8,9.2-15.6,13.6-23,13.6c-6.5,0-10.9-2.6-12.9-8.3c-1.1-3.4-1.8-8.6-1.8-16.5v-87.7h20.1V378c0,4.7,0,7.2,0.2,7.8
		c0.5,3.1,2,4.7,4.7,4.7c4,0,8.3-3.1,12.7-9.4v-84.8h20.1v110.9H219.2z M295.6,375.5c0,10-3,14.9-8.7,14.9c-3.3,0-6.7-1.6-10-4.9
		v-67.6c3.4-3.3,6.7-4.9,10-4.9c5.8,0,8.7,5.1,8.7,15.1V375.5z M315.6,373.9v-44.2c0-10.5-0.7-17.8-2-22.3
		c-2.7-8.3-8.1-12.5-16.1-12.5c-7.4,0-14.3,4-20.8,12v-48.6h-20.1v148.9h20.1v-10.7c6.7,8.3,13.6,12.3,20.8,12.3
		c8,0,13.4-4.2,16.1-12.5C315,391.6,315.6,384.2,315.6,373.9z M371.4,338.7h-20.1v-10.3c0-10.3,3.4-15.4,10.1-15.4
		c6.6,0,10,5.1,10,15.4V338.7z M391.5,371.7v-2.9H371c0,8.1-0.2,12.5-0.4,13.6c-1.2,5.4-4,8.1-9,8.1c-6.9,0-10.3-5.1-10.3-15.4
		v-19.6h40.2v-23c0-11.9-2-20.5-6.2-26.1c-5.6-7.6-13.6-11.4-23.7-11.4c-10.3,0-18.3,3.8-24.1,11.4c-4.3,5.6-6.2,14.3-6.2,26.1v38.8
		c0,11.8,2.2,20.5,6.5,26.1c5.8,7.6,13.8,11.4,24.3,11.4c10.5,0,18.7-4,24.3-12c2.4-3.6,4-7.6,4.7-12
		C391.2,382.7,391.5,378.2,391.5,371.7z"/>
	<path class="you" id="you" display="inline" fill="#FFFFFF" d="M215.2,48.9h-22.8L177,107.9l-16-59.1h-23.7c4.7,13.9,9.7,27.9,14.4,41.9
		c7.2,21,11.7,36.8,13.8,47.6v60.9h22.5v-60.9L215.2,48.9z M275.4,163v-39.3c0-12-2.1-20.7-6.3-26.4c-5.6-7.6-13.5-11.5-23.7-11.5
		c-10.1,0-18,3.8-23.6,11.5c-4.3,5.7-6.4,14.4-6.4,26.4V163c0,11.9,2,20.7,6.4,26.4c5.6,7.6,13.5,11.5,23.6,11.5
		c10.2,0,18.1-3.8,23.7-11.5C273.3,183.7,275.4,174.9,275.4,163z M255.1,166.8c0,10.4-3.1,15.6-9.7,15.6c-6.6,0-9.7-5.2-9.7-15.6
		v-47.2c0-10.4,3.1-15.5,9.7-15.5c6.5,0,9.7,5.2,9.7,15.5V166.8z M350.5,199.2V87.2h-20.3v85.7c-4.5,6.4-8.8,9.5-12.8,9.5
		c-2.7,0-4.3-1.6-4.8-4.8c-0.3-0.7-0.3-3.1-0.3-7.9V87.2h-20.2v88.6c0,7.9,0.7,13.3,1.8,16.7c2,5.7,6.5,8.3,13.1,8.3
		c7.4,0,15.1-4.5,23.2-13.8v12.2H350.5z"/>
</g>
</svg>